<svg xmlns="http://www.w3.org/2000/svg" width="124" height="22"><path d="M1.9 0C.9 0 0 .9 0 1.9V20c0 1.1.9 2 1.9 2h25.2c1.1 0 1.9-.9 1.9-1.9V1.9C29 .8 28.1 0 27.1 0H1.9zm0 1.3h25.2c.4 0 .6.3.6.6v13.5l-5.4-4.3c-.2-.2-.5-.2-.8 0l-4.8 3.3-6.4-5.2c0-.1-.2-.2-.4-.1-.1 0-.2.1-.3.1L1.2 15V2c.1-.4.4-.7.7-.7zm14.9 3.2c-1.4 0-2.6 1.2-2.6 2.6s1.2 2.6 2.6 2.6 2.6-1.2 2.6-2.6-1.2-2.6-2.6-2.6zm0 1.3c.7 0 1.3.6 1.3 1.3s-.6 1.3-1.3 1.3c-.7 0-1.3-.6-1.3-1.3s.6-1.3 1.3-1.3zM10 10.5l6.4 5.2c.2.2.5.2.8 0l4.8-3.3 5.9 4.7V20c0 .4-.3.6-.6.6H1.9c-.4 0-.6-.3-.6-.6v-3.5l8.7-6zm36.9 7.3h8.7v3.7H42.9V1.7h4v16.1zM75 4.3c2.1 2 3.1 4.4 3.1 7.3 0 2.9-1 5.3-3.1 7.3s-4.5 3-7.5 3-5.4-1-7.4-3-3.1-4.4-3.1-7.3c0-2.9 1-5.3 3.1-7.3 2-2 4.5-3 7.4-3s5.4 1 7.5 3zM63 6.9c-1.2 1.2-1.8 2.8-1.8 4.7 0 1.9.6 3.5 1.8 4.7 1.2 1.2 2.7 1.8 4.6 1.8 1.8 0 3.3-.6 4.5-1.8 1.2-1.2 1.8-2.8 1.8-4.7 0-1.9-.6-3.5-1.8-4.7-1.2-1.2-2.7-1.8-4.5-1.8-1.9 0-3.4.6-4.6 1.8zm36.3-1.3L96.4 8c-1.4-1.9-3.2-2.9-5.5-2.9-1.9 0-3.4.6-4.6 1.8-1.2 1.2-1.8 2.8-1.8 4.7 0 1.9.6 3.5 1.8 4.8s2.8 1.9 4.8 1.9c2.3 0 4-.8 5.2-2.5v-1.6h-5.5v-3.5h9.5v5.8c-.9 1.6-2.2 2.9-3.9 3.9S93 21.9 91 21.9c-3 0-5.5-1-7.5-3s-3.1-4.4-3.1-7.3c0-2.9 1-5.3 3.1-7.3 2-2 4.5-3 7.5-3 3.5 0 6.3 1.5 8.3 4.3zm21.4-1.3c2.1 2 3.1 4.4 3.1 7.3 0 2.9-1 5.3-3.1 7.3s-4.5 3-7.5 3-5.4-1-7.4-3-3.1-4.4-3.1-7.3c0-2.9 1-5.3 3.1-7.3 2-2 4.5-3 7.4-3s5.5 1 7.5 3zm-12 2.6c-1.2 1.2-1.8 2.8-1.8 4.7 0 1.9.6 3.5 1.8 4.7 1.2 1.2 2.7 1.8 4.6 1.8 1.8 0 3.3-.6 4.5-1.8 1.2-1.2 1.8-2.8 1.8-4.7 0-1.9-.6-3.5-1.8-4.7-1.2-1.2-2.7-1.8-4.5-1.8-1.8 0-3.4.6-4.6 1.8z" fill="#fff"/></svg>